<?xml version="1.0" encoding="utf-8"?>
<svg version="1.0" xmlns="http://www.w3.org/2000/svg" xmlns:xlink="http://www.w3.org/1999/xlink" x="0px" y="0px"
	 viewBox="0 0 16 16" style="enable-background:new 0 0 16 16;" xml:space="preserve">
<g>
	<path id="Fill-1" d="M15.068388,3.4388764c-0.3474445,1.5552051-1.7171965,2.529568-3.0791283,3.2638586
		c0.4667463,0.3587766,0.9979496,0.6413894,1.0160818,1.3859158c0.0155659,0.6199703-0.9124708,5.2590351-1.0685091,5.9174604
		c-0.073698,0.3118038-0.1270733,0.6138935-0.2153664,1.0159569c-0.0574093,0.2604961-0.1984787,0.8097076-0.3609428,0.8955593
		c-0.3071957,0.1636848-1.118845-0.4244299-1.2097034-0.6807909c-0.1442337-0.4071703-0.0213947-0.9544382,0.0307837-1.4155798
		c0.0550928-0.4796476,0.7961826-5.0535326,0.6992722-5.4244385C10.701251,7.7077575,9.6399393,7.4192915,8.9410162,7.1960058
		C8.710433,7.1213365,8.3030386,7.068809,8.2327528,6.8878393c-0.1648054-0.423708,0.5675669-0.5263472,0.8929939-0.6158605
		c0.4066715-0.1123528,0.8852234-0.2828622,1.1698036-0.4000964c0.6661959-0.2750912,1.5393896-0.7608156,1.7860126-1.3555059
		c0.0990028-0.2371335,0.1141958-0.5363092,0.0311327-0.7693334c-0.3782282-1.0614359-2.1539049-1.2664652-3.3567591-1.3241236
		C8.5998983,2.4151487,8.4276953,2.410043,8.2443094,2.4076021c0.3288393,0.3317533,0.5602694,0.6705799,0.4847288,0.889482
		L7.0561252,7.986012l-1.2628288,3.1901603l-0.1252546,0.3032856c-0.0969353,0.2447052-0.1390023,0.3461237-0.6697326,0.3534212
		c-0.4595728,0.0063267-0.7324724-0.0189781-0.6651006-0.3354139l0.8459458-3.7152872L6.379468,2.509768
		c-0.7482624,0.0941215-1.5657654,0.2646306-2.396244,0.5594227C3.5026052,3.239924,2.6865721,3.6154625,2.6598227,4.0858698
		C2.6234593,4.701232,3.3087339,4.7683549,3.7372983,5.0093989c0.3360369,0.1892385-0.2457764,0.5292606-0.6243536,0.5900574
		C2.4898117,5.7013731,1.6506654,5.4532804,1.3045661,5.1329594C0.5565274,4.4395156,0.8859643,3.239924,1.4582884,2.5766418
		c1.069082-1.2368017,3.5243294-2.0715644,4.9579163-2.3094206c0.8005915-0.13305,1.9438691-0.23813,2.1249394-0.2461499
		c1.5211573-0.0690903,2.9198265,0.0218927,4.1875114,0.4310052C13.9786081,0.8560582,15.4495306,1.7348306,15.068388,3.4388764z"/>
</g>
</svg>
