<svg xmlns="http://www.w3.org/2000/svg" width="256" height="256" viewBox="0 0 256 256">
  <title>icon</title>
  <path d="M220.2,68.84725c-4.534,20.29491-22.40885,33.01-40.1816,42.59228,6.09088,4.68192,13.02291,8.36992,13.25953,18.08575.20314,8.0904-11.90744,68.62867-13.94369,77.22091-.96173,4.06893-1.65825,8.0111-2.81045,13.2579-.74917,3.39939-2.59009,10.56641-4.71019,11.68675-4.0088,2.136-14.60056-5.53867-15.78623-8.8841-1.88219-5.31343-.27919-12.4551.40172-18.47285.71894-6.25924,10.38992-65.94693,9.12527-70.78713-2.344-8.992-16.19381-12.75639-25.31453-15.6702-3.009-.97441-8.32539-1.65988-9.2426-4.02148-2.15066-5.52924,7.40656-6.86865,11.65328-8.03678a150.0565,150.0565,0,0,0,15.26555-5.22113c8.69364-3.58985,20.08853-9.92839,23.30688-17.6889a14.63174,14.63174,0,0,0,.40628-10.03955c-4.93576-13.85139-28.10775-16.527-43.8046-17.27938-2.03625-.10141-4.28344-.168-6.67657-.19989,4.29124,4.32927,7.31133,8.75084,6.32554,11.60745l-21.831,61.189-16.4795,41.63054-1.63453,3.95777c-1.265,3.19332-1.81394,4.51681-8.73979,4.612-5.99727.08256-9.55852-.24767-8.67934-4.377l11.03931-48.48327,15.6637-68.80321A149.25083,149.25083,0,0,0,75.54223,64.023c-6.27192,2.228-16.92088,7.12867-17.27,13.26733-.47453,8.03028,8.46808,8.9062,14.0607,12.05175,4.38517,2.4695-3.2073,6.90668-8.14761,7.70005-8.13168,1.33-19.08226-1.90754-23.59874-6.08763C30.825,81.90527,35.124,66.251,42.59265,57.59538,56.54382,41.45552,88.584,30.56214,107.29183,27.4582c10.44745-1.73626,25.36685-3.10752,27.72975-3.21218,19.85061-.90161,38.10277.28569,54.64565,5.62448C205.9787,35.14233,225.17375,46.61,220.2,68.84725Z"/>
</svg>
